<svg version="1.2" xmlns="http://www.w3.org/2000/svg" viewBox="0 0 512 512" width="512" height="512">
	<title>New Project</title>
	<style>
		.s0 { fill: #212121 } 
		.s1 { fill: #ffeb3b } 
	</style>
	<path id="Shape 1 copy" class="s0" d="m0 64c0-35.3 28.7-64 64-64h384c35.3 0 64 28.7 64 64v384c0 35.3-28.7 64-64 64h-384c-35.3 0-64-28.7-64-64z"/>
	<path id="fem copy" class="s1" aria-label="fem"  d="m152.8 301.8c3.9 0 7.5 1.3 10.4 3.3l5.2-14.1c-4.2-3-10.5-4.4-16.9-4.4-18.6 0-28.7 11-28.7 27.8v5.1h-13.2v15h13.2v64.5h18.8v-64.5h21.4v-15h-22v-4.8c0-8.6 4-12.9 11.8-12.9zm96.9 57.6c0-25-17.1-41.4-40.5-41.4-23.8 0-41.4 17.1-41.4 40.9 0 23.9 17.4 41.1 44.3 41.1 13.8 0 25-4.5 32.2-13l-10-11.6c-5.7 5.9-12.8 8.7-21.8 8.7-13.9 0-23.7-7.5-25.9-19.2h62.8c0.2-1.8 0.3-4 0.3-5.5zm-40.5-26.4c12.3 0 21.2 7.9 22.7 19.5h-45.5c1.8-11.7 10.7-19.5 22.8-19.5zm159.6-15c-12.7 0-23.5 5.1-30 13.4-5.5-9-15.3-13.4-26.9-13.4-11 0-20.3 3.9-26.3 11.1v-10.2h-17.9v80.1h18.8v-40.6c0-16 8.4-24 20.9-24 11.3 0 17.9 6.8 17.9 21.1v43.5h18.8v-40.6c0-16 8.5-24 20.8-24 11.4 0 18 6.8 18 21.1v43.5h18.8v-45.9c0-24.2-13.5-35.1-32.9-35.1z"/>
	<path id="DAV" class="s1" aria-label="DAV"  d="m80.5 216h51.8c35.1 0 59.3-19.9 59.3-52.5 0-32.6-24.2-52.5-59.3-52.5h-51.8zm35.4-27.6v-49.8h14.9c14.8 0 25 8.8 25 24.9 0 16.1-10.2 24.9-25 24.9zm165.6 27.6h36.6l-45.9-105h-34.8l-45.9 105h36l7.1-18.3h39.9zm-37.2-43.8l10.2-26.4 10.2 26.4zm150.9-61.2l-25.7 61.3-25-61.3h-38.1l44.4 105h34.8l44.4-105z"/>
</svg>